<svg id="Capa_1" enable-background="new 0 0 512.019 512.019" height="512" viewBox="0 0 512.019 512.019" width="512" xmlns="http://www.w3.org/2000/svg" xmlns:xlink="http://www.w3.org/1999/xlink"><linearGradient id="SVGID_1_" gradientUnits="userSpaceOnUse" x1="256.01" x2="256.01" y1="512.019" y2="0"><stop offset="0" stop-color="#fd3a84"/><stop offset="1" stop-color="#ffa68d"/></linearGradient><linearGradient id="SVGID_2_" gradientUnits="userSpaceOnUse" x1="256.01" x2="256.01" y1="362" y2="120"><stop offset="0" stop-color="#ffc2cc"/><stop offset="1" stop-color="#fff2f4"/></linearGradient><g><g><g><path d="m505.33 62.52c-3.838-2.549-96.537-62.52-249.32-62.52s-245.483 59.971-249.321 62.52c-4.16 2.783-6.679 7.47-6.679 12.48v242c0 8.291 6.709 15 15 15h120.475c-.802.031-1.607.115-2.405.293-8.145 1.626-13.418 9.521-11.777 17.651l30 150c1.672 8.311 9.815 13.422 17.637 11.763 8.145-1.626 13.418-9.521 11.777-17.651l-2.412-12.056h32.705v15c0 8.291 6.709 15 15 15s15-6.709 15-15v-15h30v15c0 8.291 6.709 15 15 15s15-6.709 15-15v-15h32.705l-2.412 12.056c-1.641 8.13 3.633 16.025 11.777 17.651 7.827 1.66 15.964-3.451 17.637-11.763l30-150c1.641-8.13-3.633-16.025-11.777-17.651-.823-.181-1.652-.266-2.478-.293h120.548c8.291 0 15-6.709 15-15v-242c0-5.01-2.52-9.697-6.68-12.48zm-294.32 389.48h-38.705l-5.999-30h44.703v30zm60 0h-30v-30h30zm68.704 0h-38.704v-30h44.703zm21.589-107.944-9.59 47.944h-50.703v-45c0-8.291-6.709-15-15-15s-15 6.709-15 15v45h-30v-45c0-8.291-6.709-15-15-15s-15 6.709-15 15v45h-50.704l-9.589-47.944c-1.396-6.93-7.608-11.806-14.177-12.056h89.469 60 89.553c-6.614.213-12.857 5.093-14.259 12.056z" fill="url(#SVGID_1_)"/></g></g><g><g><path d="m406.01 302h-15v-167c0-8.291-6.709-15-15-15h-240c-8.291 0-15 6.709-15 15v167h-15c-8.291 0-15 6.709-15 15v30c0 8.291 6.709 15 15 15h300c8.291 0 15-6.709 15-15v-30c0-8.291-6.709-15-15-15zm-45 0h-210v-152h210z" fill="url(#SVGID_2_)"/></g></g></g></svg>