<svg id="Capa_1" enable-background="new 0 0 512 512" height="512" viewBox="0 0 512 512" width="512" xmlns="http://www.w3.org/2000/svg" xmlns:xlink="http://www.w3.org/1999/xlink"><linearGradient id="SVGID_1_" gradientUnits="userSpaceOnUse" x1="256.001" x2="256.001" y1="512" y2="0"><stop offset="0" stop-color="#fd3a84"/><stop offset="1" stop-color="#ffa68d"/></linearGradient><linearGradient id="SVGID_2_" gradientUnits="userSpaceOnUse" x1="256" x2="256" y1="451" y2="61"><stop offset="0" stop-color="#ffc2cc"/><stop offset="1" stop-color="#fff2f4"/></linearGradient><g><g><g><path d="m361 301 41.393-30c-5.42-10.576-11.574-20.79-19.23-30.044-10.781-13.008-12.979-31.23-5.596-46.421 8.921-18.369 13.433-38.056 13.433-58.535 0-74.443-60.557-136-135-136s-135 61.557-135 136c0 20.479 4.512 40.166 13.433 58.535 7.368 15.19 5.171 33.413-5.596 46.421-7.656 9.254-13.808 19.468-19.228 30.044l41.391 30v120l-14.604 30c15.385 20.343 32.772 40.379 48.999 56.605 2.812 2.813 6.621 4.395 10.605 4.395h120c3.984 0 7.793-1.582 10.605-4.395 16.227-16.227 33.615-36.262 48.999-56.605l-14.604-30z" fill="url(#SVGID_1_)"/></g></g><g><g><path d="m402.393 271h-71.393c-33.091 0-60-26.909-60-60v-1.518c34.191-6.969 60-37.266 60-73.482 0-41.353-33.647-75-75-75s-75 33.647-75 75c0 36.216 25.809 66.513 60 73.482v1.518c0 33.091-26.909 60-60 60h-71.391c-11.177 21.812-18.609 50.605-18.609 75 0 35.804 23.804 76.445 45.396 105h239.209c21.599-28.564 45.395-69.201 45.395-105 0-24.397-7.445-53.214-18.607-75zm-146.393 120c-8.284 0-15-6.716-15-15 0-8.286 6.716-15 15-15s15 6.714 15 15c0 8.284-6.716 15-15 15zm0-60c-8.284 0-15-6.716-15-15 0-8.286 6.716-15 15-15s15 6.714 15 15c0 8.284-6.716 15-15 15z" fill="url(#SVGID_2_)"/></g></g></g></svg>