<svg height="512pt" viewBox="0 0 512 512" width="512pt" xmlns="http://www.w3.org/2000/svg" xmlns:xlink="http://www.w3.org/1999/xlink"><linearGradient id="a" gradientUnits="userSpaceOnUse" x1="0" x2="512" y1="256" y2="256"><stop offset="0" stop-color="#00f38d"/><stop offset="1" stop-color="#009eff"/></linearGradient><path d="m512 256c0 141.386719-114.613281 256-256 256s-256-114.613281-256-256 114.613281-256 256-256 256 114.613281 256 256zm0 0" fill="url(#a)"/><g fill="#fff"><path d="m256 167.042969c23.078125 0 41.855469-18.777344 41.855469-41.855469 0-23.082031-18.777344-41.859375-41.855469-41.859375s-41.855469 18.777344-41.855469 41.859375c0 23.078125 18.777344 41.855469 41.855469 41.855469zm0-53.714844c6.539062 0 11.855469 5.320313 11.855469 11.859375 0 6.535156-5.316407 11.855469-11.855469 11.855469s-11.855469-5.320313-11.855469-11.855469c0-6.539062 5.316407-11.859375 11.855469-11.859375zm0 0"/><path d="m151.257812 193.898438c23.082032 0 41.855469-18.777344 41.855469-41.855469s-18.773437-41.855469-41.855469-41.855469c-23.082031 0-41.859374 18.773438-41.859374 41.855469 0 23.078125 18.78125 41.855469 41.859374 41.855469zm0-53.710938c6.539063 0 11.855469 5.316406 11.855469 11.855469 0 6.535156-5.316406 11.855469-11.855469 11.855469-6.539062 0-11.855468-5.320313-11.855468-11.855469 0-6.539063 5.316406-11.855469 11.855468-11.855469zm0 0"/><path d="m360.742188 193.898438c23.082031 0 41.859374-18.777344 41.859374-41.855469s-18.777343-41.855469-41.859374-41.855469c-23.078126 0-41.855469 18.777344-41.855469 41.855469s18.777343 41.855469 41.855469 41.855469zm0-53.710938c6.539062 0 11.859374 5.316406 11.859374 11.855469 0 6.535156-5.320312 11.855469-11.859374 11.855469-6.539063 0-11.855469-5.320313-11.855469-11.855469 0-6.539063 5.316406-11.855469 11.855469-11.855469zm0 0"/><path d="m387.601562 203.515625h-53.714843c-1.726563 0-3.4375.101563-5.125.308594-5.964844-15.855469-21.277344-27.167969-39.191407-27.167969h-67.8125c-17.886718 0-33.179687 11.28125-39.160156 27.101562-1.480468-.160156-2.976562-.242187-4.484375-.242187h-53.714843c-23.078126 0-41.855469 18.773437-41.855469 41.855469v100.941406h26.855469v82.359375h30v-112.359375h-26.855469v-70.941406c0-6.535156 5.320312-11.855469 11.855469-11.855469h53.714843c.605469 0 1.199219.046875 1.785157.132813v82.667968h-16.785157v112.355469h30v-82.355469h21.03125v82.355469h30v-112.359375h-34.246093v-97.796875c0-6.539063 5.320312-11.859375 11.859374-11.859375h67.8125c6.539063 0 11.855469 5.320312 11.855469 11.859375v97.796875h-33.570312v112.359375h30v-82.359375h21.027343v82.359375h30v-112.359375h-17.457031v-82.539062c.757813-.160157 1.570313-.257813 2.457031-.257813h53.714844c6.539063 0 11.855469 5.320313 11.855469 11.855469v70.941406h-26.855469v112.359375h30v-82.359375h26.855469v-100.941406c.003906-23.078125-18.773437-41.855469-41.851563-41.855469zm0 0"/></g></svg>