<?xml version="1.0"?>
<svg xmlns="http://www.w3.org/2000/svg" xmlns:xlink="http://www.w3.org/1999/xlink" width="512" height="512" viewBox="0 0 512 512"><defs><linearGradient id="a" data-name="New Gradient Swatch 1" x1="70.709" y1="538.135" x2="568.058" y2="40.786" gradientUnits="userSpaceOnUse"><stop offset="0" stop-color="#003f8a"/><stop offset="0.518" stop-color="#00d7df"/><stop offset="1" stop-color="#006df0"/></linearGradient><linearGradient id="b" x1="34.287" y1="501.713" x2="531.636" y2="4.364" xlink:href="#a"/><linearGradient id="c" x1="-29.713" y1="437.713" x2="467.636" y2="-59.636" xlink:href="#a"/><linearGradient id="d" x1="18.287" y1="485.713" x2="515.636" y2="-11.636" xlink:href="#a"/></defs><g><path d="M503.75,494.03,485,420.4c-.02-.08-.04-.15-.06-.23a87.824,87.824,0,0,0-66.48-61.94l-70.15-14.76C359.98,329.2,368,313.16,368,296v-4.52a68.105,68.105,0,0,0-6.67-29.36A111.264,111.264,0,0,0,366.87,240H372a28.031,28.031,0,0,0,28-28V188a27.75,27.75,0,0,0-2.71-12H480a8,8,0,0,0,8-8,48.051,48.051,0,0,0-48-48H375.73A120,120,0,0,0,136,128v32.29A28.043,28.043,0,0,0,112,188v24a28.031,28.031,0,0,0,28,28h5.13a111.264,111.264,0,0,0,5.54,22.12A68.105,68.105,0,0,0,144,291.48V296c0,17.16,8.02,33.2,19.69,47.47L93.54,358.23a87.824,87.824,0,0,0-66.48,61.94c-.02.08-.04.15-.06.23L8.25,494.03A7.99,7.99,0,0,0,16,504H496a7.99,7.99,0,0,0,7.75-9.97ZM376,136h64a32.058,32.058,0,0,1,30.99,24H376Zm-8,40h4a12.01,12.01,0,0,1,12,12v24a12.01,12.01,0,0,1-12,12h-4ZM144,224h-4a12.01,12.01,0,0,1-12-12V188a12.01,12.01,0,0,1,12-12h4Zm208,0a96.472,96.472,0,0,1-2.33,21.03,68.1,68.1,0,0,0-38.75-20.67l-52.59-16.01a7.877,7.877,0,0,0-4.66,0l-52.59,16.01a68.1,68.1,0,0,0-38.75,20.67A96.472,96.472,0,0,1,160,224V176H352Zm-80-80a8,8,0,0,1,0,16H216V144Zm-54.63-16a24,24,0,0,1,45.26,0ZM152,128a104,104,0,0,1,208,0v32H294.62a23.98,23.98,0,0,0-15.21-30.83A40,40,0,0,0,200,136v24H152Zm8,168v-4.52a52.111,52.111,0,0,1,5.93-24.26,8.192,8.192,0,0,0,.87-1.59,51.723,51.723,0,0,1,37.29-25.55,8.621,8.621,0,0,0,1.12-.25L256,224.36l50.79,15.47a8.621,8.621,0,0,0,1.12.25,51.723,51.723,0,0,1,37.29,25.55,8.192,8.192,0,0,0,.87,1.59A52.111,52.111,0,0,1,352,291.48V296c0,26.23-26.37,50.87-48.49,66.91A329.055,329.055,0,0,1,256,391.16a327.585,327.585,0,0,1-47.31-28.1C186.48,346.98,160,322.29,160,296Zm16.44,61.14c31.02,29.6,73.49,48.91,76.29,50.16a7.988,7.988,0,0,0,6.54,0c2.8-1.25,45.27-20.56,76.29-50.16l19.04,4a104.03,104.03,0,0,1-197.2,0ZM96,488H26.29l16.18-63.54A71.862,71.862,0,0,1,96,374.08Zm304,0H112V370.7l29.67-6.25a120,120,0,0,0,228.66,0L400,370.7Zm16,0V374.08a71.846,71.846,0,0,1,53.53,50.38L485.71,488Z" fill="url(#a)"/><path d="M240,288h32a8,8,0,0,0,0-16H240a8,8,0,0,0,0,16Z" fill="url(#b)"/><circle cx="208" cy="200" r="16" fill="url(#c)"/><circle cx="304" cy="200" r="16" fill="url(#d)"/></g></svg>
