<?xml version="1.0"?>
<svg xmlns="http://www.w3.org/2000/svg" xmlns:xlink="http://www.w3.org/1999/xlink" width="512" height="512" viewBox="0 0 512 512"><defs><linearGradient id="a" data-name="New Gradient Swatch 1" x1="65.422" y1="547.422" x2="540.736" y2="72.109" gradientUnits="userSpaceOnUse"><stop offset="0" stop-color="#003f8a"/><stop offset="0.518" stop-color="#00d7df"/><stop offset="1" stop-color="#006df0"/></linearGradient><linearGradient id="b" x1="35" y1="517" x2="510.314" y2="41.686" xlink:href="#a"/><linearGradient id="c" x1="-29" y1="453" x2="446.314" y2="-22.314" xlink:href="#a"/><linearGradient id="d" x1="19" y1="501" x2="494.314" y2="25.686" xlink:href="#a"/></defs><g><path d="M503.75,494.03,485,420.4c-.02-.08-.04-.15-.06-.23a87.824,87.824,0,0,0-66.48-61.94L320,337.51V323.86A112.136,112.136,0,0,0,366.85,248H372a28.031,28.031,0,0,0,28-28V196a28.031,28.031,0,0,0-28-28h-4V16a8,8,0,0,0-8-8H264A120.134,120.134,0,0,0,144,128v40h-4a28.031,28.031,0,0,0-28,28v24a28.031,28.031,0,0,0,28,28h5.15A112.136,112.136,0,0,0,192,323.86v13.65L93.54,358.23a87.824,87.824,0,0,0-66.48,61.94c-.02.08-.04.15-.06.23L8.25,494.03A7.99,7.99,0,0,0,16,504H496a7.99,7.99,0,0,0,7.75-9.97ZM368,184h4a12.01,12.01,0,0,1,12,12v24a12.01,12.01,0,0,1-12,12h-4ZM144,232h-4a12.01,12.01,0,0,1-12-12V196a12.01,12.01,0,0,1,12-12h4Zm16-104A104.112,104.112,0,0,1,264,24h88V147.95c-13.04,9.44-22.94,14.44-29.65,17.09l5.49-27.47a8,8,0,0,0-13.99-6.69c-31.6,37.93-125.76,43.98-153.85,44.94Zm0,104V191.86c25.27-.76,103.17-5.45,147.59-34.59l-3.43,17.16A7.992,7.992,0,0,0,312,184c1.65,0,15.06-.55,40-16.66V232a95.947,95.947,0,0,1-40,77.93V296a40.04,40.04,0,0,0-40-40H240a40.04,40.04,0,0,0-40,40v13.93A95.947,95.947,0,0,1,160,232Zm96,112a111.383,111.383,0,0,0,48-10.82V344c0,29.52-25.86,40-48,40-35.43,0-48-21.55-48-40V333.18A111.383,111.383,0,0,0,256,344Zm-40-24.74V296a24.032,24.032,0,0,1,24-24h32a24.032,24.032,0,0,1,24,24v23.26a95.9,95.9,0,0,1-80,0ZM416,488V456a8,8,0,0,0-16,0v32H112V456a8,8,0,0,0-16,0v32H26.29l16.18-63.54a71.868,71.868,0,0,1,54.37-50.57l95.92-20.19a50.6,50.6,0,0,0,18.63,32.14C222.77,394.97,238.61,400,256,400s33.23-5.03,44.61-14.16a50.6,50.6,0,0,0,18.63-32.14l95.92,20.19a71.868,71.868,0,0,1,54.37,50.57L485.71,488Z" fill="url(#a)"/><path d="M272,288H240a8,8,0,0,0,0,16h32a8,8,0,0,0,0-16Z" fill="url(#b)"/><circle cx="208" cy="216" r="16" fill="url(#c)"/><circle cx="304" cy="216" r="16" fill="url(#d)"/></g></svg>
