<svg id="Capa_1" enable-background="new 0 0 511.978 511.978" height="512" viewBox="0 0 511.978 511.978" width="512" xmlns="http://www.w3.org/2000/svg" xmlns:xlink="http://www.w3.org/1999/xlink"><linearGradient id="SVGID_1_" gradientUnits="userSpaceOnUse" x1="255.989" x2="255.989" y1="511.75" y2="0"><stop offset="0" stop-color="#5558ff"/><stop offset="1" stop-color="#00c0ff"/></linearGradient><linearGradient id="SVGID_2_" gradientUnits="userSpaceOnUse" x1="255.989" x2="255.989" y1="511.978" y2="60.978"><stop offset="0" stop-color="#addcff"/><stop offset=".5028" stop-color="#eaf6ff"/><stop offset="1" stop-color="#eaf6ff"/></linearGradient><g><g><g><path d="m405.989 60.978v-46c0-4.497-2.021-8.745-5.493-11.602-3.442-2.827-7.969-3.94-12.451-3.105l-300 61c-7.002 1.406-12.056 7.559-12.056 14.707v421c0 4.497 2.021 8.745 5.493 11.602 2.622 2.151 6.061 3.051 9.681 3.025.936-.007 1.809.267 2.77.081l57.204-5.441 272.796-55.559c7.002-1.406 12.056-7.559 12.056-14.707v-336.475z" fill="url(#SVGID_1_)"/></g></g><g><g><path d="m450.989 60.978h-45v375c0 7.148-5.054 13.301-12.056 14.707l-300 61c-.961.187-1.835-.088-2.77-.081l-.174.374h360c8.291 0 15-6.709 15-15v-421c0-8.291-6.709-15-15-15zm-267.056 101.704 150-30c8.115-1.626 13.389-9.521 11.763-17.651-1.611-8.115-9.404-13.403-17.651-11.763l-150 30c-8.115 1.626-13.389 9.521-11.763 17.651 1.641 8.24 9.705 13.399 17.651 11.763zm0 75 150-30c8.115-1.626 13.389-9.521 11.763-17.651-1.611-8.115-9.404-13.433-17.651-11.763l-150 30c-8.115 1.626-13.389 9.521-11.763 17.651 1.641 8.24 9.705 13.399 17.651 11.763zm0 75 150-30c8.115-1.626 13.389-9.521 11.763-17.651-1.611-8.115-9.404-13.447-17.651-11.763l-150 30c-8.115 1.626-13.389 9.521-11.763 17.651 1.641 8.24 9.705 13.399 17.651 11.763zm0 75 150-30c8.115-1.626 13.389-9.521 11.763-17.651-1.611-8.13-9.404-13.477-17.651-11.763l-150 30c-8.115 1.626-13.389 9.521-11.763 17.651 1.641 8.24 9.705 13.399 17.651 11.763zm-122.944-236.704h60c8.291 0 15-6.709 15-15s-6.709-15-15-15h-60c-8.291 0-15 6.709-15 15s6.709 15 15 15zm0 60h60c8.291 0 15-6.709 15-15s-6.709-15-15-15h-60c-8.291 0-15 6.709-15 15s6.709 15 15 15zm0 60h60c8.291 0 15-6.709 15-15s-6.709-15-15-15h-60c-8.291 0-15 6.709-15 15s6.709 15 15 15zm0 60h60c8.291 0 15-6.709 15-15s-6.709-15-15-15h-60c-8.291 0-15 6.709-15 15s6.709 15 15 15zm0 60h60c8.291 0 15-6.709 15-15s-6.709-15-15-15h-60c-8.291 0-15 6.709-15 15s6.709 15 15 15zm75 45c0-8.291-6.709-15-15-15h-60c-8.291 0-15 6.709-15 15s6.709 15 15 15h60c8.291 0 15-6.709 15-15z" fill="url(#SVGID_2_)"/></g></g></g></svg>