<svg id="Capa_1" enable-background="new 0 0 512 512" height="512" viewBox="0 0 512 512" width="512" xmlns="http://www.w3.org/2000/svg" xmlns:xlink="http://www.w3.org/1999/xlink"><linearGradient id="SVGID_1_" gradientUnits="userSpaceOnUse" x1="256" x2="256" y1="492" y2="0"><stop offset="0" stop-color="#fd3a84"/><stop offset="1" stop-color="#ffa68d"/></linearGradient><linearGradient id="SVGID_2_" gradientUnits="userSpaceOnUse" x1="256" x2="256" y1="512" y2="60"><stop offset="0" stop-color="#ffc8d1"/><stop offset="1" stop-color="#fff6f7"/></linearGradient><g><path d="m430.728 107.867c-15.838-31.598-39.641-58.27-68.836-77.134-31.118-20.105-67.735-30.733-105.892-30.733s-74.774 10.628-105.892 30.733c-29.195 18.865-52.998 45.537-68.836 77.134s-22.964 66.629-20.607 101.308c2.512 36.963 15.908 72.659 38.742 103.23l126.668 169.595 29.925 10 29.925-10 126.668-169.595c22.834-30.571 36.23-66.268 38.742-103.23 2.356-34.679-4.77-69.71-20.607-101.308z" fill="url(#SVGID_1_)"/><path d="m284.971 169.64c0 10.226-8.942 18.864-19.527 18.864-4.237 0-11.562.031-18.264.065-.034-6.939-.086-30.545-.105-37.793h18.369c10.584 0 19.527 8.639 19.527 18.864zm106.805 26.136c0 74.867-60.909 135.775-135.776 135.775s-135.776-60.908-135.776-135.775 60.909-135.776 135.776-135.776 135.776 60.909 135.776 135.776zm-76.805-26.136c0-26.943-22.218-48.863-49.527-48.863h-33.414c-3.986 0-7.81 1.587-10.624 4.41-2.814 2.824-4.389 6.651-4.376 10.638v119.952c0 8.284 6.716 15 15 15s15-6.716 15-15v-37.207c6.74-.034 14.163-.066 18.414-.066 27.309 0 49.527-21.921 49.527-48.864zm81.029 312.36h-280c-8.284 0-15 6.716-15 15s6.716 15 15 15h280c8.284 0 15-6.716 15-15s-6.716-15-15-15z" fill="url(#SVGID_2_)"/></g></svg>